<?xml version="1.0" standalone="no"?>
<!DOCTYPE svg PUBLIC "-//W3C//DTD SVG 20010904//EN"
 "http://www.w3.org/TR/2001/REC-SVG-20010904/DTD/svg10.dtd">
<svg version="1.0" xmlns="http://www.w3.org/2000/svg"
 width="512.000000pt" height="512.000000pt" viewBox="0 0 512.000000 512.000000"
 preserveAspectRatio="xMidYMid meet">
<metadata>
Created by potrace 1.14, written by Peter Selinger 2001-2017
</metadata>
<g transform="translate(0.000000,512.000000) scale(0.100000,-0.100000)"
fill="#000000" stroke="none">
<path d="M2260 4903 c-357 -207 -1001 -578 -1058 -610 -23 -13 -93 -53 -154
-89 -61 -35 -112 -64 -114 -64 -3 0 -23 -12 -47 -27 -23 -15 -60 -37 -82 -49
-22 -12 -125 -72 -230 -132 l-190 -110 -3 -1264 c-2 -1195 -1 -1264 15 -1274
17 -10 584 -336 681 -391 23 -13 271 -155 550 -315 279 -160 527 -302 552
-316 25 -13 82 -47 128 -73 45 -27 85 -49 89 -49 4 0 14 -6 22 -14 9 -7 43
-28 76 -45 l60 -33 120 69 c66 38 140 81 165 95 78 44 1420 813 1539 882 62
36 115 66 117 66 2 0 25 13 51 28 27 16 80 48 119 71 l71 42 -1 1261 -1 1261
-485 279 c-267 153 -496 284 -510 291 -14 8 -146 83 -295 169 -588 339 -887
508 -893 507 -4 0 -135 -75 -292 -166z"/>
</g>
</svg>
